<svg xmlns="http://www.w3.org/2000/svg" viewBox="0.118 236.093 497.509 263.907"><path fill="#002147" d="M-.023 236.142h5.805v264.275H-.023zM57.06 406.41c23.607 0 23.607 0 29.448 5.036.34.395.679.792 1.028 1.199l.998 1.11c3.477 4.782 4.405 10.332 3.84 16.157-1.048 5.707-2.948 10.359-7.548 14.115-8.185 5.313-18.526 3.631-27.766 3.631zm9.191 34.054c4.723 0 7.002.654 10.743-1.349 2.776-1.823 4.465-4.081 5.221-7.284.464-5.479.667-10.705-2.933-15.139-3.752-3.087-3.752-3.087-13.031-3.087zM169.29 406.41h12.577c1.419 3.375 2.828 6.734 4.137 10.149l.444 1.158q.459 1.193.914 2.385.7 1.83 1.407 3.656l.893 2.334.426 1.099c.551 1.451.971 2.595.971 4.16h.967l.127-1.127c.479-2.35 1.323-4.502 2.185-6.736l.549-1.437q.572-1.496 1.146-2.99.882-2.298 1.759-4.598l1.112-2.907.533-1.396.495-1.281.434-1.132c.368-.857.368-.857.851-1.337h12.094v41.248h-9.191l-.484-27.819-3.114 7.974c-2.601 6.645-5.249 13.265-8.012 19.845h-3.386l-.361-.913-3.72-9.406-1.388-3.51-1.996-5.046-.626-1.585-.587-1.484-.514-1.301q-.721-1.808-1.451-3.614l-.484 26.859h-8.707zm-75.949 0h9.675l.639 2.935.649 2.964.433 1.987c1.415 6.514 2.999 12.971 4.568 19.453l6.772-27.339h8.224c1.295 3.614 2.205 7.269 3.084 11.002 1.274 5.322 2.633 10.604 4.172 15.857 1.197-3.357 2.061-6.719 2.842-10.192l.756-3.301.38-1.663a766 766 0 0 1 1.767-7.446l.315-1.309.713-2.948h8.707c-.543 4.31-.543 4.31-.975 5.834l-.288 1.043-.309 1.097a226 226 0 0 0-2.509 10.072 739 739 0 0 1-2.752 11.751l-.354 1.462c-.81 3.335-1.645 6.663-2.487 9.989h-10.159l-.673-2.685c-2.67-10.946-2.67-10.946-5.85-21.751-.25-.984-.25-.984-.25-2.903h-.968l-.145 1.019c-.61 3.952-1.587 7.732-2.697 11.572l-1.038 3.669-.501 1.769c-.861 3.089-1.63 6.196-2.391 9.31h-9.675l-.655-2.827c-2.038-8.75-2.038-8.75-4.289-17.448-.877-3.239-1.663-6.496-2.435-9.76a289 289 0 0 0-2.063-8.202c-.233-1.093-.233-1.093-.233-3.011m327.982-103.121c1.046.746 1.954 1.528 2.903 2.399l.484-3.358h8.223q.033 6.023.05 12.046.007 2.796.024 5.593.014 2.7.018 5.402.003 1.03.01 2.057.01 1.446.008 2.889c.001.548.004 1.095.007 1.659-.244 3.197-1.471 5.935-3.921 8.073-5.072 3.901-11.059 4.12-17.275 3.381-3.691-.812-6.258-2.557-8.43-5.607-.852-1.595-1.451-2.96-1.451-4.796 7.483-.516 7.483-.516 9.275.73.612.918.612.918 1.368 2.627 2.545 1.261 6.397.758 9.009-.09 1.333-1.008 1.87-1.773 2.601-3.267.174-1.608.174-1.608.09-3.268l-.039-1.688-.051-1.279c-.212.191-.422.381-.639.579-3.342 2.946-5.781 4.052-10.331 3.934-3.255-.399-5.843-1.783-8.078-4.154a35 35 0 0 1-1.27-1.798l-.605-.872c-2.213-3.895-1.981-9.371-.96-13.618 1.578-4.134 4.227-6.794 8.217-8.682 3.695-.776 7.408-.747 10.763 1.108m-7.256 5.277c-2.018 1.7-3.07 3.251-3.87 5.755-.483 3.195.177 5.918 1.935 8.634 1.299 1.228 2.183 1.821 3.972 2.063 2.947.091 5.056-.383 7.305-2.333 1.361-1.637 1.503-3.114 1.57-5.162l.002-1.103c.006-1.388-.093-2.627-.271-4.017-.912-1.94-1.916-2.96-3.852-3.972-2.252-.787-4.559-.603-6.791.135m-28.541-5.277c1.045.746 1.953 1.528 2.902 2.399l.484-3.358h8.224q.033 6.023.05 12.046.007 2.796.023 5.593.015 2.7.018 5.402.003 1.03.011 2.057.01 1.446.008 2.889l.006 1.659c-.243 3.197-1.471 5.935-3.92 8.073-5.073 3.901-11.06 4.12-17.275 3.381-3.692-.812-6.258-2.557-8.43-5.607-.852-1.595-1.451-2.96-1.451-4.796 7.482-.516 7.482-.516 9.274.73.612.918.612.918 1.368 2.627 2.545 1.261 6.397.758 9.01-.09 1.332-1.008 1.87-1.773 2.6-3.267.175-1.608.175-1.608.091-3.268l-.04-1.688-.051-1.279c-.211.191-.422.381-.638.579-3.342 2.946-5.782 4.052-10.331 3.934-3.256-.399-5.843-1.783-8.078-4.154a35 35 0 0 1-1.27-1.798l-.605-.872c-2.214-3.895-1.981-9.371-.96-13.618 1.577-4.134 4.227-6.794 8.217-8.682 3.695-.776 7.408-.747 10.763 1.108m-7.257 5.277c-2.018 1.7-3.07 3.251-3.869 5.755-.484 3.195.176 5.918 1.935 8.634 1.298 1.228 2.183 1.821 3.972 2.063 2.946.091 5.056-.383 7.304-2.333 1.361-1.637 1.503-3.114 1.571-5.162l.001-1.103c.006-1.388-.093-2.627-.271-4.017-.911-1.94-1.915-2.96-3.851-3.972-2.253-.787-4.559-.603-6.792.135m-45.275 97.789 1.528.008 1.649.004 1.735.013 1.742.007q2.138.008 4.275.023c1.852 4.234 3.236 8.625 4.662 13.012q.623 1.919 1.251 3.836a725 725 0 0 1 3.811 11.983c.852 2.715 1.786 5.405 2.712 8.097.143.424.288.847.436 1.282l.392 1.144c.281.935.281.935.281 1.894H347.31l-1.21-4.017-.382-1.264-.299-.996-.306-1.02c-.223-.856-.223-.856-.223-1.816h-15.479l-.968 4.796c-.428 1.468-.935 2.876-1.451 4.317h-8.708c.703-4.029 1.896-7.805 3.216-11.672l.666-1.971q.871-2.579 1.748-5.154.884-2.601 1.763-5.204 1.583-4.682 3.174-9.36a438 438 0 0 0 1.12-3.349 1028 1028 0 0 0 .988-2.998c.556-1.525.556-1.525 2.035-1.595m2.302 12.953-.533 1.731-.529 1.686-.513 1.656c-.769 2.482-1.318 4.891-1.892 7.45h10.643c0-1.919 0-1.919-.338-3.201l-.478-1.476-.531-1.652c-.305-.946-.609-1.893-.902-2.842l-.319-1.048-.637-2.073c-.548-1.813-1.043-3.381-2.116-4.975-.546.541-.546.541-1.855 4.744m41.28-59.362c1.497 1.112 2.476 2.317 3.628 3.777l.968.48.364-.88c.699-1.203 1.31-1.627 2.508-2.328l1.011-.605c2.716-1.435 5.701-1.296 8.694-.983 2.91 1.089 5.021 3.121 6.331 5.918.46 1.326.559 2.308.552 3.706v1.424l-.016 1.521c-.002.519-.003 1.036-.003 1.57-.006 1.652-.019 3.304-.031 4.956l-.013 3.363q-.017 4.119-.047 8.238h-8.224l-.014-1.907a909 909 0 0 0-.087-7.005q-.02-1.515-.03-3.03a396 396 0 0 0-.058-4.358l-.001-1.368c-.032-2.513-.032-2.513-1.214-4.674-1.7-1.14-3.348-1.253-5.368-1.161-1.458.586-2.147.992-2.956 2.324-.463 1.111-.563 1.903-.585 3.102l-.029 1.221-.017 1.305-.029 1.347q-.04 2.125-.073 4.252l-.057 2.885q-.069 3.533-.125 7.067h-8.223l-.029-1.863q-.057-3.423-.124-6.844a975 975 0 0 1-.052-2.961q-.034-2.13-.078-4.258l-.018-1.337-.028-1.25-.021-1.098c-.155-1.175-.464-1.931-1.101-2.932-1.797-1.188-3.239-1.217-5.322-.96-1.482.607-2.183 1.013-2.954 2.409-.602 1.995-.604 3.893-.632 5.964l-.029 1.313a950 950 0 0 0-.073 4.134l-.057 2.809q-.069 3.437-.124 6.874h-8.708v-30.217h8.708l.483 3.357.673-.595.899-.784.885-.775c3.101-2.414 7.184-2.31 10.846-1.143m-265.548-.088c2.036 1.184 2.825 2.097 3.598 4.345l.973-.806 1.294-1.053 1.276-1.046c3.035-2.187 5.874-2.178 9.518-1.891 2.973.494 4.453 1.809 6.179 4.205 1.679 3.026 1.691 5.793 1.656 9.16l-.005 1.504q-.01 2.368-.029 4.736l-.013 3.218q-.017 3.936-.048 7.873h-8.223c-.008-.599-.014-1.196-.021-1.812q-.045-3.332-.107-6.663-.023-1.442-.04-2.883a522 522 0 0 0-.069-4.147l-.009-1.297c-.069-2.897-.534-4.596-2.657-6.701-2.523-.24-4.142.103-6.289 1.44-.993 1.477-1.092 1.819-1.121 3.495l-.03 1.251-.016 1.344-.029 1.381q-.041 2.184-.074 4.369-.026 1.48-.056 2.962-.069 3.63-.125 7.261h-8.708l-.021-1.907q-.043-3.503-.106-7.005-.024-1.515-.041-3.031-.024-2.179-.068-4.357l-.009-1.369-.029-1.28-.016-1.123c-.249-1.327-.705-1.983-1.644-2.951-2.206-.538-3.325-.663-5.473.06-1.504 1.041-1.987 1.645-2.752 3.298-.222 1.511-.235 3.01-.247 4.535l-.026 1.313c-.027 1.378-.042 2.756-.059 4.134l-.05 2.809q-.061 3.436-.101 6.874h-8.223v-30.217h8.223l.483 3.837.902-.822 1.185-1.067 1.173-1.062c2.609-2.113 7.006-2.032 10.074-.914m-28.651-66.965c2.91 2.043 5.064 4.155 5.795 7.698.119.739.233 1.477.332 2.218-1.412.079-2.819.135-4.233.18l-1.21.073c-1.155.029-2.14.019-3.265-.253-1.171-1.395-1.171-1.395-1.935-2.877-2.705-1.944-5.443-2.226-8.707-1.919-1.402.36-2.545.83-3.87 1.439-.778 1.543-.775 3.128-.484 4.797 2.341 2.673 5.903 2.945 9.282 3.297 5.19.653 10.282 1.801 13.848 5.846 2.154 2.869 1.802 6.118 1.541 9.562-.668 2.997-1.877 5.212-4.355 7.077-4.125 2.553-7.889 3.089-12.667 3.115l-1.312.03c-5.003.029-9.253-1.248-13.11-4.467-2.346-2.419-3.869-5.737-3.869-9.112h9.191l.998 2.308c.841 1.624 1.31 2.407 2.811 3.508 2.894.88 6.287.821 9.252.419 1.259-.72 2.357-1.377 3.386-2.398.116-1.085.116-1.085.121-2.339l.038-1.285c-.066-1.177-.066-1.177-.74-1.986-2.33-1.677-4.93-1.872-7.703-2.244-6.195-.904-11.531-2.317-15.42-7.495-.971-2.889-.985-6.77-.186-9.734 1.692-3.223 4.796-5.492 8.138-6.782 5.641-1.641 13.141-1.595 18.333 1.324M221.051 406.41h9.191l.014 2.529q.026 4.158.076 8.317.029 2.517.041 5.036c.009 1.935.033 3.87.058 5.805l.002 1.808c.056 3.363.322 6.25 2.228 9.12 2.036 1.586 4.07 1.66 6.578 1.577 2.058-.245 3.457-.976 4.911-2.417 1.901-3.392 1.736-6.96 1.772-10.744l.029-1.825q.035-2.385.062-4.771.03-2.44.068-4.881.07-4.777.125-9.554h9.191q.067 5.586.101 11.171.013 2.593.045 5.188.03 2.511.038 5.019c.004.941.02 1.881.036 2.82.001 4.683-.816 9.161-3.797 12.943-4.296 4.145-9.516 4.791-15.212 4.76-5.01-.112-8.578-1.422-12.23-4.895-2.569-2.923-3.389-5.968-3.382-9.781v-1.833l.008-1.973.002-2.024q.002-2.659.011-5.317.008-2.715.011-5.431.006-5.324.023-10.647m120.403-45.655 1.018.57.943.509c3.292 2.04 5.335 5.415 6.313 9.083.497 4.332.516 8.726-1.934 12.47l-.571 1.008c-2.196 3.44-5.796 4.934-9.588 6.187-5.592.384-10.143.157-14.664-3.477-2.992-2.798-4.937-6.095-5.332-10.2-.061-5.697.867-9.477 4.858-13.671 5.08-4.352 12.898-5.377 18.957-2.479m-11.076 5.366c-1.591 1.342-2.87 2.702-3.624 4.662-.803 3.577-.903 7.703 1.083 10.9 1.297 1.594 2.524 2.549 4.613 2.794 2.671.047 4.573-.251 6.636-2.049 1.737-2.073 2.157-3.521 2.129-6.128l-.043-1.156c-.017-1.412-.018-2.82-.151-4.226-.73-2.173-1.821-3.446-3.749-4.707-2.375-.86-4.461-.894-6.894-.09m-58.101-5.366 1.019.57.943.509c3.292 2.04 5.335 5.415 6.313 9.083.497 4.332.516 8.726-1.935 12.47l-.57 1.008c-2.196 3.44-5.796 4.934-9.589 6.187-5.591.384-10.141.157-14.664-3.477-2.991-2.798-4.936-6.095-5.331-10.2-.06-5.697.866-9.477 4.858-13.671 5.081-4.352 12.898-5.377 18.956-2.479m-11.075 5.366c-1.592 1.342-2.87 2.702-3.625 4.662-.802 3.577-.902 7.703 1.083 10.9 1.297 1.594 2.525 2.549 4.613 2.794 2.672.047 4.574-.251 6.636-2.049 1.739-2.073 2.158-3.521 2.129-6.128l-.042-1.156c-.017-1.412-.019-2.82-.152-4.226-.73-2.173-1.82-3.446-3.749-4.707-2.375-.86-4.46-.894-6.893-.09m-78.812-61.274c2.955 2.151 4.882 5.527 5.451 9.097.504 5.088.094 9.588-3.072 13.807-2.92 3.458-6.601 5.027-11.082 5.457-5.105.226-8.992-.609-13.015-3.839-2.978-2.807-4.698-6.158-4.927-10.252l-.121-1.829c.082-4.202 1.754-7.942 4.474-11.12 6.437-6.052 15.031-5.631 22.292-1.321m-17.394 7.586c-1.119 3.025-.981 6.688-.029 9.742.932 2.056 2.298 3.573 4.323 4.617 2.141.368 4.221.173 6.289-.48 1.558-1.244 2.386-2.335 3.295-4.107.992-2.911 1.069-6.413.091-9.323-1.297-2.238-2.482-3.65-4.837-4.796-4.145-.492-6.918.762-9.132 4.347m23.16 36.421h27.09v7.194h-17.899v9.593h14.513v7.195h-14.029v10.072h18.382v7.195h-28.057zm50.794-59.953h8.707l.484 16.787 3.386-2.878c3.089-1.531 7.081-1.454 10.34-.42 2.72 1.18 4.216 3.447 5.328 6.11.602 2.088.471 4.236.438 6.388l-.007 1.535a704 704 0 0 1-.044 4.822 1200 1200 0 0 0-.02 3.283 1534 1534 0 0 1-.071 8.02h-8.224l-.022-1.812q-.042-3.333-.105-6.664a554 554 0 0 1-.04-2.882 575 575 0 0 0-.069-4.147l-.01-1.297c-.054-2.301-.187-3.871-1.689-5.742-1.467-1.131-3.029-1.13-4.854-1.083-1.395.182-2.278.704-3.369 1.563-.994 1.477-1.092 1.82-1.123 3.495l-.028 1.252-.017 1.344-.029 1.381a907 907 0 0 0-.073 4.369l-.057 2.961q-.07 3.63-.125 7.262h-8.707zm-120.846 15.168c3.468 2.904 5.267 6.784 5.714 11.212v4.316h-21.769c1.003 4.422 1.003 4.422 3.87 6.715 1.906.945 4.211.697 6.289.48 1.952-1.106 2.366-1.814 3.386-3.837h7.74c-.499 3.462-1.035 4.936-3.537 7.284-4.505 3.012-9.588 3.249-14.845 2.788-3.774-.778-6.66-2.928-9.191-5.756-2.795-4.223-2.873-9.004-2.419-13.909.413-1.634 1.022-2.905 1.935-4.317l.496-.901c4.691-7.662 15.13-7.714 22.331-4.075m-13.153 4.107c-2.111 1.897-2.427 3.315-2.902 6.145h13.545c0-1.918 0-1.918-.303-3.087-.899-1.663-1.855-2.812-3.567-3.627-2.386-.372-4.52-.315-6.773.569m124.959-3.867c3.079 3.266 3.515 6.718 3.424 11.048l-.009 1.498a524 524 0 0 1-.06 4.69l-.026 3.199q-.034 3.902-.095 7.804h-8.223l-.483-2.879-1.301 1.139c-2.661 2.331-5.323 2.404-8.749 2.335-3.083-.23-5.014-.933-7.094-3.234-1.79-2.205-1.921-4.264-1.887-7.022.26-2.171 1.093-3.619 2.582-5.208 4.771-3.573 10.73-3.567 16.449-3.358q-.206-1.305-.424-2.608l-.238-1.467c-.102-.396-.203-.793-.306-1.201-1.902-.942-4.216-.704-6.289-.479-1.532 1.048-1.833 1.615-2.419 3.357h-7.74c0-3.187.462-4.339 2.419-6.715 5.262-5.028 14.607-4.627 20.469-.899m-16.115 17.686c-.265 1.842-.262 2.897.665 4.527 1.27.749 1.27.749 2.441.88 2.92.042 4.595-.279 6.924-2.173 1.056-1.441 1.056-1.441.613-5.631a524 524 0 0 0-3.538-.03c-3.012-.037-5.147-.117-7.105 2.427m7.256 24.461h8.224l.483 25.42c4.611-5.983 4.611-5.983 9.192-11.99.964-.218.964-.218 2.045-.188l1.177.019 1.223.049 1.238.026q1.513.038 3.024.094c-.832 1.925-2.137 3.475-3.446 5.096l-.715.892q-1.061 1.324-2.128 2.646l-1.211 1.505q-1.326 1.648-2.658 3.29a23.5 23.5 0 0 0 2.178 3.671l.718 1 .762 1.055 1.567 2.186.786 1.099a584 584 0 0 1 3.3 4.659l1.066 1.514c.749 1.124.749 1.124.749 1.604-3.221.544-6.516 1.056-9.675 0-2.527-2.025-4.066-4.96-5.536-7.786-1.106-1.949-2.405-3.784-3.656-5.644l-.483 13.43h-8.224zm-92.88-57.555h8.224l.484 25.42c4.611-5.983 4.611-5.983 9.19-11.991.965-.218.965-.218 2.048-.187l1.176.018 1.221.05 1.239.025q1.512.037 3.024.094c-.831 1.926-2.137 3.475-3.447 5.097l-.713.892q-1.061 1.323-2.129 2.645l-1.211 1.506q-1.326 1.646-2.659 3.29a24 24 0 0 0 2.179 3.67l.718 1.001.762 1.054 1.566 2.187.788 1.097a632 632 0 0 1 3.3 4.66l1.066 1.514c.748 1.125.748 1.125.748 1.605-3.221.543-6.516 1.055-9.676 0-2.525-2.027-4.066-4.961-5.535-7.788-1.105-1.948-2.404-3.783-3.655-5.643l-.484 13.431h-8.224zm180.559 71.414c2.424 1.518 3.761 3.487 4.516 6.208.403 2.082.318 4.185.295 6.296l-.003 1.502q-.01 2.36-.031 4.72l-.013 3.213q-.016 3.924-.047 7.849h-8.224c-.015-.922-.015-.922-.028-1.863q-.057-3.422-.125-6.843-.029-1.482-.051-2.962c-.022-1.419-.051-2.839-.079-4.258l-.017-1.336-.029-1.251-.02-1.098c-.154-1.163-.483-1.936-1.102-2.932-2.386-1.392-5.064-1.249-7.679-.629-1.408.862-1.525 1.448-1.996 3.027-.158 1.546-.18 3.089-.2 4.641l-.029 1.345q-.042 2.118-.073 4.236l-.057 2.88q-.068 3.52-.125 7.043h-8.708v-30.217h8.708l.484 3.837c.36-.365.718-.732 1.088-1.109 3.727-3.611 8.655-4.45 13.545-2.299m49.222-57.026c2.615 2.535 3.927 5.142 4.035 8.73q0 1.435-.024 2.869l-.006 1.535c-.007 1.608-.026 3.215-.044 4.822l-.021 3.283q-.024 4.009-.07 8.02h-8.224l-.021-1.812c-.028-2.222-.066-4.443-.105-6.664q-.026-1.441-.041-2.882a522 522 0 0 0-.069-4.147c-.003-.428-.007-.856-.009-1.297-.055-2.301-.188-3.871-1.69-5.742-1.467-1.131-3.028-1.13-4.854-1.083-1.395.182-2.279.704-3.37 1.563-.993 1.477-1.092 1.82-1.121 3.495l-.029 1.252-.017 1.344-.029 1.381a907 907 0 0 0-.073 4.369l-.057 2.961q-.068 3.63-.125 7.262h-8.708V302.33h8.708l.484 3.358.639-.597c4.068-3.648 9.916-4.76 14.841-1.802m-216.72 56.597h8.224l.022 1.752c.027 2.155.065 4.31.105 6.465q.024 1.396.04 2.793.027 2.012.069 4.025l.01 1.251c.063 2.587.427 4.453 1.689 6.736 1.81 1.197 2.69 1.139 4.837.959 2.025-.772 3.314-1.459 4.354-3.357.232-1.564.237-3.12.248-4.699l.026-1.379c.026-1.451.042-2.902.059-4.354q.023-1.477.05-2.954.061-3.619.101-7.238h8.707v30.217h-8.707l-.484-3.358-.672.596-.9.783-.885.775c-2.82 2.195-5.686 1.943-9.152 1.683-2.184-.41-3.604-1.186-5.231-2.728-2.378-3.568-2.717-6.558-2.652-10.731l.007-1.5c.008-1.568.026-3.137.045-4.706q.011-1.602.019-3.206.025-3.912.071-7.825m144.642 46.524h10.158l1.185 2.156 1.567 2.85.777 1.416a968 968 0 0 0 4.695 8.447c1.254-1.549 2.159-3.174 3.074-4.939l.449-.863q.705-1.355 1.405-2.712l.959-1.846q1.17-2.252 2.337-4.509h9.19c-1.16 2.878-2.625 5.52-4.111 8.244q-.459.857-.914 1.713c-1.298 2.425-2.578 4.812-4.22 7.029-5.064 7.078-3.965 15.946-3.816 24.262h-9.19c.043-1.182.086-2.364.132-3.582.226-9.783-.419-16.704-6.434-24.824-1.668-2.325-3.077-4.801-4.523-7.266l-.828-1.369-.755-1.25-.668-1.103c-.469-.895-.469-.895-.469-1.854m-2.903-115.111h31.927v7.674h-11.126v33.575h-9.675v-34.054h-11.126zM262.654 406.41h9.674v34.054h16.932v7.194h-26.606zm-110.779 0h9.675v41.248h-9.675zM57.06 348.854h9.675v41.249H57.06zm16.931-2.398h8.707v43.647h-8.707zm118.519-57.555h8.224v43.647h-8.224zm214.3 70.985h8.708v30.217h-8.708zm-88.526-57.556h8.708v30.218h-8.708zm121.422 0h8.224v30.218h-8.224zm5.244-13.178c1.793.391 2.482 1.121 3.463 2.626.335 1.362.344 2.477 0 3.838-1.16 1.589-1.969 2.245-3.84 2.877-1.842 0-2.838-.464-4.384-1.439-1.192-1.773-1.346-3.219-.967-5.276 1.524-2.34 3.044-2.795 5.728-2.626m-32.895 57.557c1.045.227 1.045.227 2.526 1.156 1.095 1.715 1.297 2.781 1.166 4.782-.229 1.004-.229 1.004-1.166 2.233-2.007.934-3.658 1.13-5.836.689-1.475-.955-2.222-1.6-2.646-3.328-.139-1.862.127-2.753 1.166-4.346 1.727-1.118 2.761-1.317 4.79-1.186m-88.526-57.555c1.045.226 1.045.226 2.526 1.155 1.095 1.716 1.297 2.781 1.166 4.782-.229 1.004-.229 1.004-1.166 2.233-2.007.934-3.658 1.13-5.836.689-1.476-.956-2.222-1.601-2.646-3.327-.14-1.863.127-2.754 1.166-4.347 1.727-1.118 2.76-1.316 4.79-1.185"/></svg>